<mxfile host="app.diagrams.net" modified="2024-03-17T22:30:53.690Z" agent="Mozilla/5.0 (Windows NT 10.0; Win64; x64) AppleWebKit/537.36 (KHTML, like Gecko) Chrome/122.0.0.0 Safari/537.36 Edg/122.0.0.0" etag="3NFpFbYHK5rcYxyr31cT" version="24.0.7" type="github">
  <diagram name="Page-1" id="VcK6FqUuJnXCoi6rQzsN">
    <mxGraphModel dx="365" dy="678" grid="0" gridSize="10" guides="1" tooltips="1" connect="1" arrows="1" fold="1" page="0" pageScale="1" pageWidth="850" pageHeight="1100" math="0" shadow="0">
      <root>
        <mxCell id="0" />
        <mxCell id="1" parent="0" />
        <mxCell id="3uC8p15jOwmWcl3g0wQB-1" value="" style="whiteSpace=wrap;html=1;aspect=fixed;" vertex="1" parent="1">
          <mxGeometry x="315" y="-376" width="141" height="141" as="geometry" />
        </mxCell>
        <mxCell id="3uC8p15jOwmWcl3g0wQB-2" value="" style="whiteSpace=wrap;html=1;aspect=fixed;" vertex="1" parent="1">
          <mxGeometry x="340" y="-348" width="142" height="142" as="geometry" />
        </mxCell>
        <mxCell id="3uC8p15jOwmWcl3g0wQB-3" value="" style="endArrow=none;html=1;rounded=0;fontSize=12;startSize=8;endSize=8;curved=1;entryX=0;entryY=0;entryDx=0;entryDy=0;exitX=0;exitY=0;exitDx=0;exitDy=0;" edge="1" parent="1" source="3uC8p15jOwmWcl3g0wQB-2" target="3uC8p15jOwmWcl3g0wQB-1">
          <mxGeometry width="50" height="50" relative="1" as="geometry">
            <mxPoint x="391" y="-250" as="sourcePoint" />
            <mxPoint x="441" y="-300" as="targetPoint" />
          </mxGeometry>
        </mxCell>
        <mxCell id="3uC8p15jOwmWcl3g0wQB-4" value="" style="endArrow=none;html=1;rounded=0;fontSize=12;startSize=8;endSize=8;curved=1;entryX=0;entryY=0;entryDx=0;entryDy=0;exitX=0;exitY=0;exitDx=0;exitDy=0;" edge="1" parent="1">
          <mxGeometry width="50" height="50" relative="1" as="geometry">
            <mxPoint x="481" y="-348" as="sourcePoint" />
            <mxPoint x="456" y="-376" as="targetPoint" />
          </mxGeometry>
        </mxCell>
        <mxCell id="3uC8p15jOwmWcl3g0wQB-5" value="" style="endArrow=none;html=1;rounded=0;fontSize=12;startSize=8;endSize=8;curved=1;entryX=0;entryY=0;entryDx=0;entryDy=0;exitX=0;exitY=0;exitDx=0;exitDy=0;" edge="1" parent="1">
          <mxGeometry width="50" height="50" relative="1" as="geometry">
            <mxPoint x="340" y="-207" as="sourcePoint" />
            <mxPoint x="315" y="-235" as="targetPoint" />
          </mxGeometry>
        </mxCell>
      </root>
    </mxGraphModel>
  </diagram>
</mxfile>
